/* XPM */
static char * close_pressed_xpm[] = {
"32 35 12 1",
" 	c None",
".	c #33393B",
"+	c #5F3333",
"@	c #9E0707",
"#	c #AA0000",
"$	c #9E0808",
"%	c #5F3434",
"&	c #9D0808",
"*	c #FFFFFF",
"=	c #9D0707",
"-	c #5B2E2E",
";	c #5A2E2E",
"................................",
"................................",
"................................",
"................................",
"................................",
"................................",
".....+@##################$%.....",
".....$####################&.....",
".....######################.....",
".....######################.....",
".....######################.....",
".....######################.....",
".....######**######**######.....",
".....######***####***######.....",
".....#######***##***#######.....",
".....########******########.....",
".....#########****#########.....",
".....#########****#########.....",
".....########******########.....",
".....#######***##***#######.....",
".....######***####***######.....",
".....######**######**######.....",
".....######################.....",
".....######################.....",
".....######################.....",
".....######################.....",
".....######################.....",
".....=####################=.....",
".....-=##################=;.....",
"................................",
"................................",
"................................",
"................................",
"................................",
"................................"};
