/* XPM */
static char * maximize_toggled_active_xpm[] = {
"32 35 3 1",
" 	c None",
".	c #33393B",
"+	c #C3C6C9",
"................................",
"................................",
"................................",
"................................",
"................................",
"................................",
"................................",
"................................",
"................................",
"................................",
"................................",
".............++++++++++.........",
".............++++++++++.........",
".............++......++.........",
".............++......++.........",
".........++++++++++..++.........",
".........++++++++++..++.........",
".........++......++++++.........",
".........++......++++++.........",
".........++......++.............",
".........++......++.............",
".........++++++++++.............",
".........++++++++++.............",
"................................",
"................................",
"................................",
"................................",
"................................",
"................................",
"................................",
"................................",
"................................",
"................................",
"................................",
"................................"};
