/* XPM */
static char * maximize_pressed_xpm[] = {
"32 35 8 1",
" 	c None",
".	c #33393B",
"+	c #3E596F",
"@	c #215D9C",
"#	c #3F596E",
"$	c #FFFFFF",
"%	c #3B5368",
"&	c #3A5268",
"................................",
"................................",
"................................",
"................................",
"................................",
"................................",
".....+@@@@@@@@@@@@@@@@@@@@#.....",
".....@@@@@@@@@@@@@@@@@@@@@@.....",
".....@@@@@@@@@@@@@@@@@@@@@@.....",
".....@@@@@@@@@@@@@@@@@@@@@@.....",
".....@@@@@@@@@@@@@@@@@@@@@@.....",
".....@@@@@@@@@@@@@@@@@@@@@@.....",
".....@@@@@$$$$$$$$$$$$@@@@@.....",
".....@@@@@$$$$$$$$$$$$@@@@@.....",
".....@@@@@$$@@@@@@@@$$@@@@@.....",
".....@@@@@$$@@@@@@@@$$@@@@@.....",
".....@@@@@$$@@@@@@@@$$@@@@@.....",
".....@@@@@$$@@@@@@@@$$@@@@@.....",
".....@@@@@$$@@@@@@@@$$@@@@@.....",
".....@@@@@$$@@@@@@@@$$@@@@@.....",
".....@@@@@$$$$$$$$$$$$@@@@@.....",
".....@@@@@$$$$$$$$$$$$@@@@@.....",
".....@@@@@@@@@@@@@@@@@@@@@@.....",
".....@@@@@@@@@@@@@@@@@@@@@@.....",
".....@@@@@@@@@@@@@@@@@@@@@@.....",
".....@@@@@@@@@@@@@@@@@@@@@@.....",
".....@@@@@@@@@@@@@@@@@@@@@@.....",
".....@@@@@@@@@@@@@@@@@@@@@@.....",
".....%@@@@@@@@@@@@@@@@@@@@&.....",
"................................",
"................................",
"................................",
"................................",
"................................",
"................................"};
