/* XPM */
static char * maximize_toggled_prelight_xpm[] = {
"32 35 3 1",
" 	c None",
".	c #33393B",
"+	c #215D9C",
"................................",
"................................",
"................................",
"................................",
"................................",
"................................",
"................................",
"................................",
"................................",
"................................",
"................................",
".............++++++++++.........",
".............++++++++++.........",
".............++......++.........",
".............++......++.........",
".........++++++++++..++.........",
".........++++++++++..++.........",
".........++......++++++.........",
".........++......++++++.........",
".........++......++.............",
".........++......++.............",
".........++++++++++.............",
".........++++++++++.............",
"................................",
"................................",
"................................",
"................................",
"................................",
"................................",
"................................",
"................................",
"................................",
"................................",
"................................",
"................................"};
