/* XPM */
static char * maximize_prelight_xpm[] = {
"32 35 5 1",
" 	c None",
".	c #33393B",
"+	c #215D9C",
"@	c #292F2F",
"#	c #282C2C",
"................................",
"................................",
"................................",
"................................",
"................................",
"................................",
"................................",
"................................",
"................................",
"................................",
"................................",
"................................",
"..........++++++++++++..........",
"..........++++++++++++..........",
"..........++@@@@@@@@++..........",
"..........++@@@@@@@@++..........",
"..........++@@###@@@++..........",
"..........++@@###@@@++..........",
"..........++@@@@@@@@++..........",
"..........++@@@@@@@@++..........",
"..........++++++++++++..........",
"..........++++++++++++..........",
"................................",
"................................",
"................................",
"................................",
"................................",
"................................",
"................................",
"................................",
"................................",
"................................",
"................................",
"................................",
"................................"};
