/* XPM */
static char * stick_pressed_xpm[] = {
"32 35 9 1",
" 	c None",
".	c #33393B",
"+	c #3E596F",
"@	c #215D9C",
"#	c #3F596E",
"$	c #FFFFFF",
"%	c #2460A0",
"&	c #3B5368",
"*	c #3A5268",
"................................",
"................................",
"................................",
"................................",
"................................",
"................................",
".....+@@@@@@@@@@@@@@@@@@@@#.....",
".....@@@@@@@@@@@@@@@@@@@@@@.....",
".....@@@@@@@@@@@@@@@@@@@@@@.....",
".....@@@@@@@@@@@@@@@@@@@@@@.....",
".....@@@@@@@@@@@@@@@@@@@@@@.....",
".....@@@@@@@@@@@@@@@@@@@@@@.....",
".....@@@@@@@@@@@$@@@@@@@@@@.....",
".....@@@@@@@@@@$$$@@@@@@@@@.....",
".....@@@@@@@@@$$$$$@@@@@@@@.....",
".....@@@@@@@@$$$@$$$@@@@@@@.....",
".....@@@@@@@$$$@@@$$$@@@@@@.....",
".....@@@@@@$$$@@@@@$$$@@@@@.....",
".....@@@@@@@$$$@@@$$$@@@@@@.....",
".....@@@@@@@@$$$@$$$@@@@@@@.....",
".....@@@@@@@@@$$$$$@@@@@@@@.....",
".....@@@@@@@@@@$$$@@@@@@@@@.....",
".....@@@@@@@@@@@$@@@@@@@@@@.....",
".....@@@@@@@@@@@@@@@@@@@@@@.....",
".....@@@@@@@@@@@@@@@@@@@@@@.....",
".....@@@@@@@@@@@@@@@@@@@@@@.....",
".....@@@@@@@@@@@@@@@@@@@@@@.....",
".....%@@@@@@@@@@@@@@@@@@@@%.....",
".....&%@@@@@@@@@@@@@@@@@@%*.....",
"................................",
"................................",
"................................",
"................................",
"................................",
"................................"};
